<svg id="Layer_1" data-name="Layer 1" xmlns="http://www.w3.org/2000/svg" viewBox="0 0 225 602"><defs><style>.cls-1{fill:#fff;}.cls-2,.cls-4{fill:none;stroke-miterlimit:10;}.cls-2{stroke:#b3b3b3;}.cls-3{fill:#a88f4b;}.cls-4{stroke:#fff;stroke-width:0.71px;}.cls-5{fill:#e0ae73;}</style></defs><path class="cls-1" d="M36.17,17v7.39h7.26v.94H36.17V37.72H35V25.33h-7.3v-.94H35V17Z"/><path class="cls-2" d="M174.5,500.72V87.31a15,15,0,0,0-15-15h0a15,15,0,0,0-14.95,15V379a18.8,18.8,0,0,1-18.8,18.79h0A18.79,18.79,0,0,1,107,379v-289a19.7,19.7,0,0,0-19.71-19.7h0a19.7,19.7,0,0,0-19.7,19.7v113.8a16,16,0,0,1-16,16h0a16,16,0,0,1-16-16v-139"/><circle class="cls-1" cx="174.5" cy="105.22" r="12.5"/><circle class="cls-1" cx="107" cy="112.72" r="20"/><circle class="cls-1" cx="107" cy="165.72" r="20"/><circle class="cls-1" cx="107" cy="218.72" r="20"/><circle class="cls-1" cx="107" cy="271.72" r="20"/><circle class="cls-3" cx="107" cy="324.72" r="20"/><circle class="cls-1" cx="174.5" cy="145.22" r="12.5"/><circle class="cls-1" cx="174.5" cy="185.22" r="12.5"/><circle class="cls-1" cx="35.59" cy="105.22" r="12.5"/><circle class="cls-1" cx="35.5" cy="65.22" r="6.5"/><circle class="cls-4" cx="35.5" cy="65.22" r="10"/><circle class="cls-1" cx="35.59" cy="145.22" r="12.5"/><circle class="cls-1" cx="35.59" cy="185.22" r="12.5"/><circle class="cls-1" cx="174.5" cy="225.22" r="12.5"/><circle class="cls-5" cx="174.5" cy="265.22" r="12.5"/><circle class="cls-1" cx="174.5" cy="305.22" r="12.5"/><circle class="cls-1" cx="174.5" cy="345.22" r="12.5"/><circle class="cls-1" cx="174.5" cy="385.22" r="12.5"/><circle class="cls-1" cx="174.5" cy="425.22" r="12.5"/><circle class="cls-1" cx="174.5" cy="464.22" r="12.5"/><path class="cls-2" d="M174.5,500.22v35a34,34,0,0,1-34,34h0a34,34,0,0,1-34-34v-191"/><circle class="cls-4" cx="174.5" cy="500.22" r="10"/><circle class="cls-1" cx="174.5" cy="500.22" r="7.5"/></svg>