<svg id="Layer_1" data-name="Layer 1" xmlns="http://www.w3.org/2000/svg" viewBox="0 0 160.4 520.9"><defs><style>.cls-1,.cls-3{fill:none;stroke-miterlimit:10;}.cls-1{stroke:#b3b3b3;stroke-width:0.98px;}.cls-2{fill:#fff;}.cls-3{stroke:#fff;stroke-width:0.69px;}</style></defs><path class="cls-1" d="M82.31,374V487.46a33,33,0,0,0,33,32.95h0a33,33,0,0,0,32.94-32.95V74.64A14.59,14.59,0,0,0,133.6,60h0A14.6,14.6,0,0,0,119,74.64v313A18.35,18.35,0,0,1,100.66,406h0a18.36,18.36,0,0,1-18.35-18.35V116.18A19.23,19.23,0,0,0,63.08,97h0a19.23,19.23,0,0,0-19.24,19.23v72.08a15.62,15.62,0,0,1-15.62,15.62h0A15.62,15.62,0,0,1,12.6,188.26V52.58"/><path class="cls-2" d="M13.1,0V11.5H24.4V13H13.1V32.22H11.35V13H0V11.5H11.35V0Z"/><circle class="cls-2" cx="148.2" cy="124.89" r="12.2"/><circle class="cls-2" cx="82.31" cy="129.25" r="16.57"/><circle class="cls-2" cx="82.31" cy="173.16" r="16.57"/><circle class="cls-2" cx="82.31" cy="217.07" r="16.57"/><circle class="cls-2" cx="82.31" cy="260.98" r="16.57"/><circle class="cls-2" cx="82.31" cy="304.89" r="16.57"/><circle class="cls-2" cx="148.2" cy="159.29" r="12.2"/><circle class="cls-2" cx="148.2" cy="193.69" r="12.2"/><circle class="cls-2" cx="148.2" cy="228.1" r="12.2"/><circle class="cls-2" cx="148.2" cy="262.5" r="12.2"/><circle class="cls-2" cx="148.2" cy="296.9" r="12.2"/><circle class="cls-2" cx="148.2" cy="331.31" r="12.2"/><circle class="cls-2" cx="148.2" cy="365.71" r="12.2"/><circle class="cls-2" cx="148.2" cy="400.11" r="12.2"/><circle class="cls-2" cx="148.2" cy="434.52" r="12.2"/><circle class="cls-3" cx="12.2" cy="169.68" r="9.76"/><circle class="cls-2" cx="12.2" cy="169.68" r="7.32"/><circle class="cls-3" cx="148.2" cy="92.92" r="9.76"/><circle class="cls-2" cx="148.2" cy="92.92" r="7.32"/><circle class="cls-3" cx="148.2" cy="466.48" r="9.76"/><circle class="cls-2" cx="148.2" cy="466.48" r="7.32"/><circle class="cls-3" cx="12.2" cy="55.68" r="9.76"/><circle class="cls-2" cx="12.2" cy="55.68" r="7.32"/><circle class="cls-2" cx="12.2" cy="82.96" r="12.2"/><circle class="cls-2" cx="12.2" cy="112.68" r="12.2"/><circle class="cls-2" cx="12.2" cy="142.4" r="12.2"/><circle class="cls-2" cx="82.31" cy="349.82" r="14.25"/><path d="M89.78,356.07a2.44,2.44,0,0,1-.28-1l-1.4-10.06a4.09,4.09,0,0,1,0-.62,1,1,0,0,1,1.06-1.11v-.13H87l-2.74,6.36L82.41,345h-.12l-1.86,4.65-2.77-6.43h-2.5v.13a1.62,1.62,0,0,1,.71.18,2.06,2.06,0,0,1,.74,1.07L75.09,355.3a3.88,3.88,0,0,1-.1.55.69.69,0,0,1-.21.36.93.93,0,0,1-.59.12v.13h2v-.13c-.4,0-.61-.18-.61-.52a3.77,3.77,0,0,1,0-.51L77,345.49l2.65,6.08-.94,2.32a2.55,2.55,0,0,1-.18.31c-.12.2-.23.31-.34.34a1.76,1.76,0,0,1-.31,0v.1h1.43v-.1c-.22,0-.33-.06-.33-.2a.64.64,0,0,1,0-.24l.83-2.07,1.92,4.39h.09l2.07-4.79,1,2.47a.59.59,0,0,1,0,.21c0,.17-.1.24-.29.23v.1h2.2v-.1a.9.9,0,0,1-.48-.15,2.77,2.77,0,0,1-.59-1.05l-1.26-3.11,2.07-4.79L88,355.23a4.24,4.24,0,0,1,.06.52.51.51,0,0,1-.6.58v.13h3v-.13A.88.88,0,0,1,89.78,356.07Zm-7.45-2-1.69-3.92L82,346.79,83.66,351Z"/></svg>