<svg id="Layer_1" data-name="Layer 1" xmlns="http://www.w3.org/2000/svg" viewBox="0 0 160.4 501.32"><defs><style>.cls-1,.cls-3{fill:none;stroke-miterlimit:10;}.cls-1{stroke:#b3b3b3;stroke-width:0.98px;}.cls-2{fill:#fff;}.cls-3{stroke:#fff;stroke-width:0.69px;}</style></defs><path class="cls-1" d="M119,327.9V486.23a14.6,14.6,0,0,0,14.6,14.6h0a14.59,14.59,0,0,0,14.6-14.6V442.54"/><path class="cls-1" d="M12.2,55.68V193.31a12.59,12.59,0,0,0,12.59,12.58h0a12.58,12.58,0,0,0,12.58-12.58V114.18A21.63,21.63,0,0,1,59,92.55h0a21.62,21.62,0,0,1,21.63,21.63V332.65a19.18,19.18,0,0,0,19.18,19.18h0A19.17,19.17,0,0,0,119,332.65V70.28a14.6,14.6,0,0,1,14.6-14.6h0a14.6,14.6,0,0,1,14.6,14.6v395.2"/><line class="cls-1" x1="80.64" y1="332.13" x2="80.64" y2="395.9"/><path class="cls-2" d="M13.1,0V11.5H24.4V13H13.1V32.22H11.35V13H0V11.5H11.35V0Z"/><circle class="cls-2" cx="148.2" cy="124.89" r="12.2"/><circle class="cls-2" cx="80.64" cy="129.25" r="16.57"/><circle class="cls-2" cx="80.64" cy="173.16" r="16.57"/><circle class="cls-2" cx="80.64" cy="217.07" r="16.57"/><circle class="cls-2" cx="80.64" cy="260.98" r="16.57"/><circle class="cls-2" cx="80.64" cy="304.89" r="16.57"/><circle class="cls-2" cx="148.2" cy="159.29" r="12.2"/><circle class="cls-2" cx="148.2" cy="193.69" r="12.2"/><circle class="cls-2" cx="148.2" cy="228.1" r="12.2"/><circle class="cls-2" cx="148.2" cy="262.5" r="12.2"/><circle class="cls-2" cx="148.2" cy="296.9" r="12.2"/><circle class="cls-2" cx="148.2" cy="331.31" r="12.2"/><circle class="cls-2" cx="148.2" cy="365.71" r="12.2"/><circle class="cls-2" cx="148.2" cy="400.11" r="12.2"/><circle class="cls-2" cx="148.2" cy="434.52" r="12.2"/><circle class="cls-3" cx="12.2" cy="169.68" r="9.76"/><circle class="cls-2" cx="12.2" cy="169.68" r="7.32"/><circle class="cls-3" cx="148.2" cy="92.92" r="9.76"/><circle class="cls-2" cx="148.2" cy="92.92" r="7.32"/><circle class="cls-3" cx="148.2" cy="466.48" r="9.76"/><circle class="cls-2" cx="148.2" cy="466.48" r="7.32"/><circle class="cls-3" cx="12.2" cy="55.68" r="9.76"/><circle class="cls-2" cx="12.2" cy="55.68" r="7.32"/><circle class="cls-2" cx="12.2" cy="82.96" r="12.2"/><circle class="cls-2" cx="12.2" cy="112.68" r="12.2"/><circle class="cls-2" cx="12.2" cy="142.4" r="12.2"/><circle class="cls-2" cx="80.64" cy="400.11" r="14.25"/><path d="M88.11,406.36a2.57,2.57,0,0,1-.29-1l-1.39-10.06a4.35,4.35,0,0,1-.06-.62,1,1,0,0,1,1.07-1.11v-.13h-2.1l-2.74,6.36-1.86-4.58h-.12l-1.86,4.65L76,393.48h-2.5v.13a1.62,1.62,0,0,1,.71.18,2.06,2.06,0,0,1,.74,1.07l-1.52,10.73a2.82,2.82,0,0,1-.11.55.62.62,0,0,1-.2.36,1,1,0,0,1-.59.12v.13h2v-.13c-.41,0-.61-.18-.61-.52a2.64,2.64,0,0,1,0-.51l1.34-9.81L78,401.86,77,404.18a2.55,2.55,0,0,1-.18.31c-.12.2-.23.31-.34.34a1.88,1.88,0,0,1-.31,0v.1h1.43v-.1c-.22,0-.34-.06-.34-.2a.69.69,0,0,1,.06-.24l.83-2.07,1.92,4.39h.09L82.27,402l1,2.47a.59.59,0,0,1,0,.21c0,.16-.1.24-.29.23v.1h2.2v-.1a.9.9,0,0,1-.48-.15,2.77,2.77,0,0,1-.59-1.05l-1.27-3.12L85,395.76l1.36,9.75a4.54,4.54,0,0,1,.06.53.51.51,0,0,1-.6.58v.13h3v-.13A.88.88,0,0,1,88.11,406.36Zm-7.45-2L79,400.41l1.33-3.33L82,401.25Z"/></svg>