<svg id="Layer_1" data-name="Layer 1" xmlns="http://www.w3.org/2000/svg" viewBox="0 0 46.98 46.98"><defs><style>.cls-1{fill:#fff;}</style></defs><path class="cls-1" d="M47,11.26a6.89,6.89,0,0,0-.1.76,1.7,1.7,0,0,1-.71,1.46c.62,1,.28,2.11.08,3.15-.1.52-.58.76-1.16.9.8.53.75,1.28.65,2,0,.19,0,.39-.05.59-.06,1-.42,1.42-1.49,1.66a1.62,1.62,0,0,1,.88,2c-.07.39,0,.79-.11,1.18a1.4,1.4,0,0,1-2.12,1A1.79,1.79,0,0,1,42,24.15a11,11,0,0,1,.21-1.26c.15-.72.58-1.08,1.47-1.22a2.07,2.07,0,0,1-.94-2.35c.16-.9.24-1.83,1.42-2a3,3,0,0,1,.13-4.12c-.81-1-.39-2.06-.12-3.09a1.17,1.17,0,0,1,1.14-.84,1.54,1.54,0,0,1,1.51.74c.08.12.13.24.2.36Z"/><path class="cls-1" d="M.09,26l4.43-6.16q3.86-5.35,7.7-10.7a6.18,6.18,0,0,1,2-1.82c2.51-1.44,5-2.9,7.52-4.35a5.34,5.34,0,0,1,2.79-.76c3.78,0,7.56,0,11.35,0,1.11,0,1.56.7,1.05,1.69a4.47,4.47,0,0,1-4.21,2.58c-1.58,0-3.17,0-4.76,0a4.51,4.51,0,0,0-4.58,3.74c-.13.69-.09,1.4-.22,2.09A7.29,7.29,0,0,1,16,18.38H14.55c-.32,0-.53.17-.53.5a.48.48,0,0,0,.5.5A9,9,0,0,0,22,16.85a8.47,8.47,0,0,0,2.38-5.92,3.49,3.49,0,0,1,3.41-3.44c.87,0,1.74,0,2.61,0l.46,0c-1.17,1.94-1.18,2.86-.08,4.56a3.41,3.41,0,0,0-1.44,5.36A3.44,3.44,0,0,0,27,19.7a3.34,3.34,0,0,0,.62,3.14c-2.41,1.45-2.75,2.62-1.56,5.44h-.87c-1.52,0-3.05,0-4.57,0a14.38,14.38,0,0,0-1.7.29.82.82,0,0,1-.56-.08c-1.28-.89-2.54-1.8-3.81-2.7a.82.82,0,0,0-.48-.21c-.16,0-.43.2-.43.31a.92.92,0,0,0,.24.65c.81.62,1.65,1.2,2.49,1.79l1.35,1-1,1.28-1.49-1.07-.38-.26a.5.5,0,1,0-.58.81c.51.38,1,.75,1.56,1.13l.38.28-1.32,2.07L13.57,35.7ZM26.46,15.67v-.23c0-.37,0-.77-.47-.78s-.51.39-.52.75a17.79,17.79,0,0,1-2.21,8.13c-.17.31-.26.6.11.83s.57.06.79-.36A19.32,19.32,0,0,0,26.46,15.67Z"/><path class="cls-1" d="M34.94,33.65c.76-1,1.9-1.06,2.93-1.3.52-.13.9.26,1.22.82a2.1,2.1,0,0,1,.75-1.91c.48-.45.85-1.07,1.75-1-.9-.94-.5-1.94-.32-2.9a1.39,1.39,0,0,1,1.55-1.13,1.49,1.49,0,0,1,1.39,1.49A16.66,16.66,0,0,1,44,29.56c-.1.66-.61,1-1.5,1.15a1.66,1.66,0,0,1-.29,2.44c-.17.18-.31.38-.47.56-.87,1-1.92,1-2.66-.27a2.35,2.35,0,0,1-1.4,2.05,23.58,23.58,0,0,1-2.54.62v2.07c.38.11,1-.07,1,.57s-.57.46-1,.54c0,.46,0,.91,0,1.37a.44.44,0,0,0,.22.29,1.5,1.5,0,0,1,.78,1.4c0,.82,0,1.64,0,2.52h-3c0-1,0-2,0-3,0-.32.4-.66.69-.9a.57.57,0,0,0,.27-.5c0-.4,0-.79,0-1.2-.42-.08-1,.06-1-.58s.54-.45,1-.51V35.06c-1.2.41-2.15-.26-3.09-.77-.62-.33-.67-1.06-.3-1.93a5.44,5.44,0,0,1-.7-.15,1.33,1.33,0,0,1-1-1.19c-.06-.48-.07-1-.1-1.54l3.13.18-.15,2C33.55,31.74,34.74,32.49,34.94,33.65Z"/><path class="cls-1" d="M34.4,23.34l-3.83-.27a5.19,5.19,0,0,1-1-.13A2.36,2.36,0,0,1,30,18.33c1.93-.14,3.87-.26,5.8-.32a2.67,2.67,0,0,1,.66,5.28,11.64,11.64,0,0,1-2,0Z"/><path class="cls-1" d="M38.49,12.54c-1.7-.1-3.41-.18-5.11-.3a2.37,2.37,0,0,1-.19-4.74c1.79-.11,3.59-.21,5.38-.33a2.7,2.7,0,1,1,.15,5.38h-.23Z"/><path class="cls-1" d="M37,18c-1.72-.1-3.44-.18-5.16-.3a2.37,2.37,0,0,1,.08-4.74c1.75-.1,3.5-.19,5.25-.32a2.7,2.7,0,0,1,2.95,2.52A2.65,2.65,0,0,1,37.46,18H37Z"/><path class="cls-1" d="M34.38,23.33l.35.11A2.69,2.69,0,0,1,37,26.25a2.62,2.62,0,0,1-2.68,2.51q-2.87-.09-5.71-.32A2.31,2.31,0,0,1,26.36,26a2.38,2.38,0,0,1,2.39-2.24q2.58-.13,5.16-.3a4.13,4.13,0,0,0,.49-.07Z"/><path class="cls-1" d="M42,6.23a2.08,2.08,0,0,1,3.18,0c.27.25.53.51.8.75a1.21,1.21,0,0,1,.44,1.34,1.3,1.3,0,0,1-1.17.88,2.41,2.41,0,0,1-2.19-.77c-.24-.27-.48-.56-.74-.81a1.26,1.26,0,0,1-.4-1.2Z"/><path class="cls-1" d="M42,6.23,42,6.38a1.62,1.62,0,0,0-.19.18c-.29.34-.55.47-1,.15a3.56,3.56,0,0,0-2.45-.53l-2,.13c.3-.33.56-.59.8-.87a1.84,1.84,0,0,0,.37-.52,1.2,1.2,0,0,1,1.32-.79c.58,0,1.16-.07,1.74-.09a1.4,1.4,0,0,1,1.48,2A1.16,1.16,0,0,1,42,6.23Z"/><path class="cls-1" d="M26.46,15.67A19.32,19.32,0,0,1,24.16,24c-.22.42-.5.55-.79.36s-.28-.52-.11-.83a17.79,17.79,0,0,0,2.21-8.13c0-.36,0-.76.52-.75s.48.41.47.78Z"/></svg>